<svg width="119" height="13" viewBox="0 0 119 13" fill="none" xmlns="http://www.w3.org/2000/svg">
<path fill-rule="evenodd" clip-rule="evenodd" d="M8.9695 1.7044C9.8384 2.4384 10.2729 3.4478 10.2729 4.7324C10.2729 6.0171 9.8384 7.0236 8.9695 7.7519C8.1006 8.4803 6.9002 8.8445 5.3681 8.8445H2.1441V12.6468H0.875V0.6032H5.3681C6.9002 0.6032 8.1006 0.9703 8.9695 1.7044ZM8.0606 6.9433C8.6894 6.4214 9.0038 5.6845 9.0038 4.7324C9.0038 3.7575 8.6894 3.0091 8.0606 2.4872C7.4318 1.9653 6.5229 1.7044 5.3338 1.7044H2.1441V7.7261H5.3338C6.5229 7.7261 7.4318 7.4652 8.0606 6.9433ZM15.2033 11.95C14.2372 11.4166 13.4827 10.6854 12.9396 9.7563C12.3965 8.8272 12.125 7.7835 12.125 6.625C12.125 5.4665 12.3965 4.4228 12.9396 3.4937C13.4827 2.5646 14.2372 1.8334 15.2033 1.3C16.1694 0.7667 17.2469 0.5 18.436 0.5C19.625 0.5 20.6968 0.7638 21.6515 1.2914C22.6061 1.8191 23.3578 2.5503 23.9066 3.4851C24.4554 4.4199 24.7298 5.4665 24.7298 6.625C24.7298 7.7835 24.4554 8.8301 23.9066 9.7649C23.3578 10.6997 22.6061 11.4309 21.6515 11.9586C20.6968 12.4862 19.625 12.75 18.436 12.75C17.2469 12.75 16.1694 12.4833 15.2033 11.95ZM21.0084 10.9693C21.7744 10.5391 22.3746 9.9427 22.8091 9.18C23.2435 8.4172 23.4607 7.5655 23.4607 6.625C23.4607 5.6845 23.2435 4.8328 22.8091 4.07C22.3746 3.3073 21.7744 2.7109 21.0084 2.2807C20.2424 1.8506 19.3849 1.6355 18.436 1.6355C17.487 1.6355 16.6267 1.8506 15.855 2.2807C15.0833 2.7109 14.4773 3.3073 14.0372 4.07C13.597 4.8328 13.3769 5.6845 13.3769 6.625C13.3769 7.5655 13.597 8.4172 14.0372 9.18C14.4773 9.9427 15.0833 10.5391 15.855 10.9693C16.6267 11.3994 17.487 11.6145 18.436 11.6145C19.3849 11.6145 20.2424 11.3994 21.0084 10.9693ZM43.697 0.6032L39.65 12.6468H38.312L34.7965 2.3754L31.2637 12.6468H29.9432L25.896 0.6032H27.1993L30.6635 10.9607L34.2477 0.6032H35.431L38.964 11.0123L42.479 0.6032H43.697ZM54.501 11.5456V12.6468H46.012V0.6032H54.244V1.7044H47.281V5.9884H53.489V7.0723H47.281V11.5456H54.501ZM65.683 12.6468L62.939 8.7756C62.63 8.81 62.31 8.8272 61.978 8.8272H58.754V12.6468H57.485V0.6032H61.978C63.51 0.6032 64.711 0.9703 65.58 1.7044C66.449 2.4384 66.883 3.4478 66.883 4.7324C66.883 5.673 66.646 6.4673 66.171 7.1153C65.697 7.7634 65.019 8.2308 64.139 8.5176L67.072 12.6468H65.683ZM64.671 6.9519C65.3 6.4243 65.614 5.6845 65.614 4.7324C65.614 3.7575 65.3 3.0091 64.671 2.4872C64.042 1.9653 63.133 1.7044 61.944 1.7044H58.754V7.7433H61.944C63.133 7.7433 64.042 7.4795 64.671 6.9519ZM71.882 11.9586C70.927 11.4309 70.179 10.6997 69.635 9.7649C69.092 8.8301 68.821 7.7835 68.821 6.625C68.821 5.4665 69.092 4.4199 69.635 3.4851C70.179 2.5503 70.93 1.8191 71.891 1.2914C72.851 0.7638 73.926 0.5 75.115 0.5C76.006 0.5 76.83 0.6491 77.584 0.9473C78.339 1.2456 78.979 1.6814 79.505 2.2549L78.699 3.0636C77.761 2.1115 76.578 1.6355 75.149 1.6355C74.2 1.6355 73.337 1.8535 72.559 2.2893C71.782 2.7252 71.173 3.3216 70.733 4.0787C70.293 4.8357 70.073 5.6845 70.073 6.625C70.073 7.5655 70.293 8.4143 70.733 9.1713C71.173 9.9284 71.782 10.5248 72.559 10.9607C73.337 11.3965 74.2 11.6145 75.149 11.6145C76.59 11.6145 77.773 11.1327 78.699 10.1692L79.505 10.9779C78.979 11.5514 78.336 11.9901 77.576 12.2941C76.815 12.598 75.989 12.75 75.098 12.75C73.909 12.75 72.837 12.4862 71.882 11.9586ZM83.972 11.95C83.006 11.4166 82.252 10.6854 81.709 9.7563C81.166 8.8272 80.894 7.7835 80.894 6.625C80.894 5.4665 81.166 4.4228 81.709 3.4937C82.252 2.5646 83.006 1.8334 83.972 1.3C84.938 0.7667 86.016 0.5 87.205 0.5C88.394 0.5 89.466 0.7638 90.421 1.2914C91.375 1.8191 92.127 2.5503 92.676 3.4851C93.224 4.4199 93.499 5.4665 93.499 6.625C93.499 7.7835 93.224 8.8301 92.676 9.7649C92.127 10.6997 91.375 11.4309 90.421 11.9586C89.466 12.4862 88.394 12.75 87.205 12.75C86.016 12.75 84.938 12.4833 83.972 11.95ZM89.777 10.9693C90.543 10.5391 91.144 9.9427 91.578 9.18C92.013 8.4172 92.23 7.5655 92.23 6.625C92.23 5.6845 92.013 4.8328 91.578 4.07C91.144 3.3073 90.543 2.7109 89.777 2.2807C89.011 1.8506 88.154 1.6355 87.205 1.6355C86.256 1.6355 85.396 1.8506 84.624 2.2807C83.852 2.7109 83.246 3.3073 82.806 4.07C82.366 4.8328 82.146 5.6845 82.146 6.625C82.146 7.5655 82.366 8.4172 82.806 9.18C83.246 9.9427 83.852 10.5391 84.624 10.9693C85.396 11.3994 86.256 11.6145 87.205 11.6145C88.154 11.6145 89.011 11.3994 89.777 10.9693ZM96.346 0.6032H101.233C102.502 0.6032 103.623 0.8584 104.595 1.3689C105.566 1.8793 106.321 2.5904 106.858 3.5023C107.396 4.4142 107.664 5.455 107.664 6.625C107.664 7.7949 107.396 8.8358 106.858 9.7477C106.321 10.6596 105.566 11.3707 104.595 11.8811C103.623 12.3916 102.502 12.6468 101.233 12.6468H96.346V0.6032ZM101.165 11.5456C102.216 11.5456 103.137 11.3363 103.926 10.9177C104.715 10.499 105.326 9.9198 105.761 9.18C106.195 8.4401 106.412 7.5885 106.412 6.625C106.412 5.6615 106.195 4.8099 105.761 4.07C105.326 3.3302 104.715 2.751 103.926 2.3323C103.137 1.9137 102.216 1.7044 101.165 1.7044H97.615V11.5456H101.165ZM119 11.5456V12.6468H110.511V0.6032H118.743V1.7044H111.78V5.9884H117.988V7.0723H111.78V11.5456H119Z" fill="white"/>
</svg>
