<svg width="119" height="17" viewBox="0 0 119 17" fill="none" xmlns="http://www.w3.org/2000/svg">
<path fill-rule="evenodd" clip-rule="evenodd" d="M12.6555 13.5307H6.989L5.9877 16.1557H0.875L7.3937 1.0943H12.336L18.8547 16.1557H13.6568L12.6555 13.5307ZM11.2709 9.873L9.8222 6.0861L8.3736 9.873H11.2709ZM22.9023 15.4995C21.6383 14.8325 20.6477 13.9001 19.9305 12.7024C19.2133 11.5046 18.8547 10.1455 18.8547 8.625C18.8547 7.1045 19.2133 5.7454 19.9305 4.5476C20.6477 3.3499 21.6383 2.4175 22.9023 1.7505C24.1663 1.0835 25.5864 0.75 27.1629 0.75C28.6115 0.75 29.9038 1.0082 31.04 1.5246C32.1762 2.041 33.1135 2.7869 33.852 3.7623L30.6779 6.624C29.7547 5.4477 28.6683 4.8596 27.4185 4.8596C26.3676 4.8596 25.5225 5.2003 24.8835 5.8817C24.2444 6.563 23.9248 7.4775 23.9248 8.625C23.9248 9.7725 24.2444 10.687 24.8835 11.3683C25.5225 12.0497 26.3676 12.3904 27.4185 12.3904C28.6683 12.3904 29.7547 11.8023 30.6779 10.626L33.852 13.4877C33.1135 14.4631 32.1762 15.209 31.04 15.7254C29.9038 16.2418 28.6115 16.5 27.1629 16.5C25.5864 16.5 24.1663 16.1665 22.9023 15.4995ZM45.249 13.5307H39.583L38.581 16.1557H33.4686L39.987 1.0943H44.93L51.448 16.1557H46.25L45.249 13.5307ZM43.864 9.873L42.416 6.0861L40.967 9.873H43.864ZM52.258 1.0943H59.607C61.269 1.0943 62.735 1.3991 64.006 2.0087C65.277 2.6183 66.264 3.4897 66.967 4.623C67.67 5.7562 68.022 7.0902 68.022 8.625C68.022 10.1598 67.67 11.4938 66.967 12.627C66.264 13.7603 65.277 14.6317 64.006 15.2413C62.735 15.8509 61.269 16.1557 59.607 16.1557H52.258V1.0943ZM59.394 12.1967C60.474 12.1967 61.336 11.8847 61.983 11.2608C62.629 10.6368 62.952 9.7582 62.952 8.625C62.952 7.4918 62.629 6.6132 61.983 5.9892C61.336 5.3653 60.474 5.0533 59.394 5.0533H57.285V12.1967H59.394ZM82.252 12.3258V16.1557H69.854V1.0943H81.975V4.9242H74.796V6.6885H81.102V10.3463H74.796V12.3258H82.252ZM97.505 16.1557L97.463 9.292L94.225 14.8002H92.009L88.771 9.5287V16.1557H84.191V1.0943H88.324L93.181 9.1199L97.91 1.0943H102.043L102.085 16.1557H97.505ZM113.376 10.6906V16.1557H108.349V10.626L102.725 1.0943H108.029L111.075 6.3012L114.143 1.0943H119L113.376 10.6906Z" fill="white"/>
</svg>
